inDegrees=no
num_controls=7
num_derivatives=13
num_iterations=68
num_multipliers=7
num_parameters=0
num_slacks=7
num_states=26
objective=0.461188
objective_accelerations=0.000550
objective_balance=0.010436
objective_effort=0.012652
objective_height=0.437550
objective_ligament=0.000000
solver_duration=897.140025
status=Solve_Succeeded
success=true
DataType=double
version=3
OpenSimVersion=4.5
endheader
time	/jointset/ground_pelvis/pelvis_tilt/value	/jointset/ground_pelvis/pelvis_tx/value	/jointset/ground_pelvis/pelvis_ty/value	/jointset/hip_l/hip_flexion_l/value	/jointset/hip_l/hip_adduction_l/value	/jointset/hip_l/hip_rotation_l/value	/jointset/back/lumbar_extension/value	/jointset/patellofemoral_l/patellar_flexion_l/value	/jointset/knee_l/knee_flexion_l/value	/jointset/knee_l/knee_adduction_l/value	/jointset/knee_l/knee_rotation_l/value	/jointset/ankle_l/ankle_angle_l/value	/jointset/subtalar_l/subtalar_angle_l/value	/jointset/ground_pelvis/pelvis_tilt/speed	/jointset/ground_pelvis/pelvis_tx/speed	/jointset/ground_pelvis/pelvis_ty/speed	/jointset/hip_l/hip_flexion_l/speed	/jointset/hip_l/hip_adduction_l/speed	/jointset/hip_l/hip_rotation_l/speed	/jointset/back/lumbar_extension/speed	/jointset/patellofemoral_l/patellar_flexion_l/speed	/jointset/knee_l/knee_flexion_l/speed	/jointset/knee_l/knee_adduction_l/speed	/jointset/knee_l/knee_rotation_l/speed	/jointset/ankle_l/ankle_angle_l/speed	/jointset/subtalar_l/subtalar_angle_l/speed	/forceset/tau_hip_flexion_l	/forceset/tau_hip_adduction_l	/forceset/tau_hip_rotation_l	/forceset/tau_knee_flexion_l	/forceset/tau_ankle_angle_l	/forceset/tau_subtalar_angle_l	/forceset/tau_lumbar_extension	lambda_cid13_p0	lambda_cid13_p1	lambda_cid13_p2	lambda_cid13_p3	lambda_cid13_p4	lambda_cid13_p5	lambda_cid14_p0	/jointset/ground_pelvis/pelvis_tilt/accel	/jointset/ground_pelvis/pelvis_tx/accel	/jointset/ground_pelvis/pelvis_ty/accel	/jointset/hip_l/hip_flexion_l/accel	/jointset/hip_l/hip_adduction_l/accel	/jointset/hip_l/hip_rotation_l/accel	/jointset/back/lumbar_extension/accel	/jointset/patellofemoral_l/patellar_flexion_l/accel	/jointset/knee_l/knee_flexion_l/accel	/jointset/knee_l/knee_adduction_l/accel	/jointset/knee_l/knee_rotation_l/accel	/jointset/ankle_l/ankle_angle_l/accel	/jointset/subtalar_l/subtalar_angle_l/accel	gamma_cid13_p0	gamma_cid13_p1	gamma_cid13_p2	gamma_cid13_p3	gamma_cid13_p4	gamma_cid13_p5	gamma_cid14_p0
0.5	-0.1369798109906131	0.04831151955027117	0.8960872868450965	0.3873541607363409	-0.2718880620506499	-0.01819925203615903	-0.03650509982183534	0.03446038509051775	0.03446038509053397	-0.1745228511857457	-0.0676358164484358	-0.03849474549575453	-0.02425251869122937	-0.02385774766537309	0.002283865716092383	-0.002558426009729776	0.02940656975426978	-0.0007155736937902093	0.0195388407893206	-0.06674343078780602	0.008494036646808242	0.008494036646808562	3.648049836698332e-05	-0.01581702062969708	0.006104093743500288	0.0004246151285563181	0.02030204162982245	0.0329448657575913	0.01581967636330014	-0.1969168866294098	0.1919637911368532	-0.06130853507580328	0.02297397486680881	19.04323111537684	27.25332456796816	-9.272169799472385	2.095465524053405	-629.4715078789217	-15.58390269069557	-34.32232103045376	0.03465911099126637	-0.02608179796657512	-0.000628299070945408	0.002731782568834495	0.0001270287281212593	-0.0004321864066911337	0.01705298576251252	0.01313198205387777	0.01313198205387785	0.0003160849040576301	0.00285041817296398	-0.0257547959562562	-0.005626123812791498	-1.874211057794543e-11	-1.058920179094656e-10	3.217074403124446e-11	-1.204877590621765e-11	-9.119323664847559e-11	-5.064364547953359e-11	-1.356291559629109e-11
0.51	-0.1372166324715505	0.04833305625040941	0.8960616743834049	0.3876483217835081	-0.2718952147970531	-0.01800390573666643	-0.03717161885022788	0.03454596041025922	0.0345459604102717	-0.1745224786544307	-0.0677938304859388	-0.03843499908650426	-0.02424855842551795	-0.02350467225115384	0.002023626060896953	-0.002563810217367734	0.02942269262906964	-0.0007149830729571914	0.01952852811772168	-0.06655353486473799	0.008620013375761895	0.008620013375762165	3.785954842331973e-05	-0.01578427763811782	0.005844957625385255	0.0003674026545296304	0.0198318866582267	0.03298371123650388	0.01593751160959584	-0.1964287506923163	0.1913706379666104	-0.06128612098446649	0.0233646319951205	18.85576958034384	27.27006891135165	-9.267592505236831	2.147148674798121	-629.4782070492364	-15.57028182834586	-34.32368119075557	0.03591319542538612	-0.02597229101360525	-0.0004550909400298201	0.0006104783374192646	2.396978465368397e-05	-0.001614465601576938	0.02098389918914773	0.01217843078430055	0.01217843078442473	2.38698461945511e-05	0.003712614528229136	-0.02602759213596655	-0.005774101027281915	-9.402285966977295e-12	-9.74690540602134e-11	3.004121394331187e-11	-2.358421551386125e-11	-9.699542840345502e-11	-3.437398846495545e-11	-1.198498418623645e-11
0.52	-0.1374498669105915	0.04835199510565343	0.8960360157577695	0.3879425556471344	-0.2719023618590405	-0.01780871929550974	-0.03783603371866056	0.03463276507979949	0.03463276507979985	-0.1745220973216825	-0.06795147181857782	-0.03837785095291688	-0.02424517134291314	-0.02314033928540769	0.001764296737244958	-0.002567658798491576	0.02942113303996567	-0.0007144368111813042	0.01950686912351936	-0.06632259879730071	0.008739906603440501	0.008739906603440727	3.824079008033995e-05	-0.01574247965142558	0.00558443861139271	0.0003099785073178205	0.01936173168691246	0.03302255671544946	0.01605534685583266	-0.1959406147550995	0.1907774847963931	-0.06126370689309062	0.02375528912364849	18.66826508250355	27.28671807153378	-9.262882722176194	2.200186350082014	-629.4845985371205	-15.55697309895823	-34.32508278188286	0.03691062129659974	-0.02589973165786786	-0.0003211737681224256	-0.0008047102119115761	0.0001181569167126143	-0.00270145092748122	0.02526101463631829	0.01191528179883185	0.01191528179883173	0.0001165232242194601	0.004661417195656069	-0.02603137513176162	-0.005668458449798042	-1.880261976141338e-11	-9.502580422124994e-11	2.965000867800823e-11	-2.912416125391126e-11	-3.010887116390717e-11	-2.915320122468568e-11	-1.936337776788667e-11
0.53	-0.1376794043630269	0.04836834703206527	0.8960103263597586	0.3882366885612447	-0.2719095011834859	-0.01761381635356844	-0.03849794007190337	0.03472074459670738	0.0347207445967085	-0.1745217131675433	-0.06810863848736462	-0.03832331028040088	-0.02424235592164959	-0.02276547229433512	0.001506436372852174	-0.002569949959684736	0.02940263500150753	-0.0007132151458761768	0.01947118394896412	-0.06605245398910706	0.008855405022455657	0.008855405022455192	3.879604443132262e-05	-0.01568862271151841	0.005323880285265157	0.0002533889411554487	0.01891579996561624	0.03305924637052674	0.01616678825202266	-0.1954945547600084	0.1902458390538157	-0.06124268112830916	0.02412900096442421	18.50058804455449	27.301844521625	-9.259467614860554	2.239507679047958	-629.4924415904578	-15.54434320579144	-34.32652475283276	0.03802656503297797	-0.02567702098119195	-0.0001424596812144207	-0.002794576314358217	0.0001561235988166128	-0.004382355783819949	0.02882389297610255	0.01127836329709374	0.01127836329718626	5.591396280964635e-05	0.006082530968427157	-0.02604040788197541	-0.005611714503580899	-2.94255364583968e-11	-1.022784614631411e-10	2.90403652842993e-11	-1.951247855993645e-11	2.243407017144128e-11	-3.116949622409524e-11	-2.301059273019593e-11
0.54	-0.13790514278015	0.04838213078840431	0.8959846221756569	0.3885305520498563	-0.2719166219008205	-0.01741934632439157	-0.0391569584412469	0.03480986134606403	0.03480986134605334	-0.174521317283378	-0.06826519964698324	-0.03827136966045029	-0.02424009789780886	-0.0223805322224225	0.001250662722685682	-0.002570616016663035	0.02936724793702415	-0.0007107153901133136	0.01942028657183223	-0.06574500201834307	0.008967353095234743	0.008967353095233584	4.058679568033398e-05	-0.01562137782841037	0.005064428097984132	0.0001984990228288761	0.01846986824442628	0.03309593602560904	0.01627822964844851	-0.1950484947649787	0.1897141933112098	-0.06122165536353261	0.02450271280532181	18.33285727483724	27.31686659233544	-9.255905894178374	2.280202849513623	-629.5001023613668	-15.53202763140846	-34.32800701023446	0.03892523746454937	-0.02548238881257273	3.847074850119947e-06	-0.004182515416947905	0.0003737750082738973	-0.005743891442916614	0.03272244715033538	0.01120521255158024	0.01120521255158031	0.0003636226038439418	0.007339005835918941	-0.02581014736243741	-0.005328528882618849	-4.140109806883684e-11	-1.202585052625737e-10	2.818904566341855e-11	6.862707933385163e-12	5.910747901703704e-11	-4.119277582910754e-11	-2.252969517748961e-11
0.55	-0.1381269822977638	0.04839337045953143	0.895958919634898	0.3888239727580486	-0.2719237136788166	-0.01722545438349414	-0.03981271340139963	0.03490007614838853	0.03490007614840038	-0.1745209015178774	-0.06842102853491251	-0.03822201522397747	-0.02423838214151548	-0.0219856965980307	0.0009979568209308785	-0.002569590315897635	0.02931343774335864	-0.0007077029693146246	0.01935660223206441	-0.06539957371370642	0.009074438471459844	0.009074438471459088	4.231877567679856e-05	-0.01554326650870321	0.004806876570986126	0.0001447026758132585	0.01803913271700174	0.03313167639538583	0.01638515239219155	-0.1946329309403673	0.1892301224845819	-0.0612030991325619	0.02486677704773489	18.18041662190493	27.33119858820171	-9.253278844433799	2.309458184618932	-629.5092718943057	-15.51912108889386	-34.32952900005378	0.04001392577713749	-0.02506188872901068	0.0001972202897635457	-0.006498668303972695	0.000255577096545924	-0.006905620222065416	0.03641546664127885	0.01028487014369702	0.010284870143992	4.083701203264469e-05	0.00821716964288737	-0.02566506060120392	-0.005397603270086355	-3.679666979857792e-11	-1.18318480299423e-10	2.400056897337716e-11	1.016533049010747e-11	5.938107662362512e-11	-3.397487822255847e-11	-1.932162249417015e-11
0.5600000000000001	-0.1383448232189653	0.04840210363206805	0.8959332364088877	0.3891167516849197	-0.2719307772123012	-0.01703224426899559	-0.04046482158959901	0.03499132673844783	0.03499132673846667	-0.1745204758623014	-0.06857604231462926	-0.03817522378381693	-0.02423720283182441	-0.02158081293957592	0.0007493630045823829	-0.002566753066984289	0.02923889167123676	-0.0007050664892734286	0.0192839212931544	-0.06501564762826956	0.009174510647106828	0.009174510647106475	4.256480825762181e-05	-0.01545835620481534	0.004551828834674608	9.120970243537495e-05	0.01760839718957976	0.03316741676514833	0.01649207513632038	-0.1942173671159251	0.1887460516578924	-0.06118454290162468	0.02523084129021553	18.02791147382022	27.34541889154348	-9.250493509243881	2.340084297667623	-629.5184041149159	-15.50653001998361	-34.33108966887715	0.04093484427706907	-0.02465997173125524	0.0003661567044402218	-0.008329691108213492	0.0002985868567849794	-0.007543211271451631	0.04042200331031515	0.009802572435919371	0.009802572435919326	6.643312072630712e-05	0.00869880267214232	-0.02530938922509696	-0.005267854155051669	-1.229625367148092e-11	-9.247437282117289e-11	1.580750380034311e-11	-1.42191236770885e-11	1.597490074340538e-11	-6.067567962136444e-12	-1.284093965411502e-11
